GRFwalking.mot
version=1
nRows=19
nColumns=37
inDegrees=yes
endheader
time	ground_force_calcn_l_vx	ground_force_calcn_l_vy	ground_force_calcn_l_vz	ground_force_calcn_l_px	ground_force_calcn_l_py	ground_force_calcn_l_pz	ground_torque_calcn_l_vx	ground_torque_calcn_l_vy	ground_torque_calcn_l_vz	ground_force_calcn_r_vx	ground_force_calcn_r_vy	ground_force_calcn_r_vz	ground_force_calcn_r_px	ground_force_calcn_r_py	ground_force_calcn_r_pz	ground_torque_calcn_r_vx	ground_torque_calcn_r_vy	ground_torque_calcn_r_vz	ground_force_hand_l_vx	ground_force_hand_l_vy	ground_force_hand_l_vz	ground_force_hand_l_px	ground_force_hand_l_py	ground_force_hand_l_pz	ground_torque_hand_l_vx	ground_torque_hand_l_vy	ground_torque_hand_l_vz	ground_force_hand_r_vx	ground_force_hand_r_vy	ground_force_hand_r_vz	ground_force_hand_r_px	ground_force_hand_r_py	ground_force_hand_r_pz	ground_torque_hand_r_vx	ground_torque_hand_r_vy	ground_torque_hand_r_vz
1.699981     -26.78755      550.2458      29.00572      0.176538 -1.040834e-17     -0.437739             0     -1.365955             0     -14.31757      455.1775     -14.07182     0.1146576 -6.938894e-18    -0.1680333             0    -0.9643625             0             0             0             0     0.1848992     0.7779628    -0.5408883             0             0             0             0             0             0     0.1822563     0.7852704   -0.04764175             0             0             0
1.716648       -3.0488      432.1089      4.941386     0.1501331 -1.040834e-17    -0.4408291             0    -0.9934421             0      6.645261      640.2736     -20.21957      0.112348 -6.938894e-18     -0.169521             0    -0.7329327             0             0             0             0     0.1860726     0.7762277    -0.5380207             0             0             0             0             0             0      0.180411     0.7826677   -0.04538278             0             0             0
1.733315       14.8048      350.2516      -9.46354     0.1472926 -1.040834e-17    -0.4412656             0    -0.6726243             0      23.56997      756.5936      -21.7269     0.1125119 -6.938894e-18    -0.1696329             0    -0.5328307             0             0             0             0     0.1876681     0.7757607    -0.5354241             0             0             0             0             0             0     0.1791157     0.7811782   -0.04322203             0             0             0
1.749981      25.11627      316.1603     -10.77367     0.1583872 -1.040834e-17    -0.4401919             0    -0.4183012             0      35.40853      778.3417     -17.07308     0.1145453 -6.938894e-18    -0.1689431             0    -0.3739931             0             0             0             0     0.1895813     0.7764386    -0.5330156             0             0             0             0             0             0     0.1781104      0.780712   -0.04118532             0             0             0
1.766648       31.0072      311.4876     -3.122972     0.1765548 -1.040834e-17    -0.4399524             0    -0.2003791             0      44.32545      730.7716     -8.529464     0.1176699 -6.938894e-18    -0.1676972             0    -0.2381281             0             0             0             0     0.1916209     0.7778196    -0.5305468             0             0             0             0             0             0     0.1769376      0.780857   -0.03912068             0             0             0
1.783314      36.90842      305.0193      5.703142     0.1872959 -1.040834e-17    -0.4380335             0     0.0236245             0      52.95878      663.0241    -0.2561433      0.121045 -6.938894e-18    -0.1661834             0    -0.0952791             0             0             0             0      0.193751     0.7794548     -0.527769             0             0             0             0             0             0      0.175386     0.7811763   -0.03679144             0             0             0
1.799981      44.57191      276.1724       9.65979     0.1921902 -1.040834e-17    -0.4361604             0     0.2630791             0      61.53907      613.9323      4.353929      0.123942 -6.938894e-18    -0.1647208             0    0.06782871             0             0             0             0     0.1960936     0.7810682    -0.5245971             0             0             0             0             0             0     0.1736197     0.7814026   -0.03403833             0             0             0
1.816647      51.98969        226.55      7.302478     0.1947759 -1.040834e-17    -0.4356032             0       0.47807             0      67.55541       596.116      4.186668      0.126451 -6.938894e-18    -0.1632392             0     0.2335523             0             0             0             0     0.1987646     0.7826406    -0.5211395             0             0             0             0             0             0     0.1719799     0.7815283   -0.03087505             0             0             0
1.833314      55.53055      173.5534      1.023666     0.1985008 -1.387779e-17    -0.4352363             0      0.608368             0      67.97248      601.6006     0.2309783     0.1292079 -8.673617e-18    -0.1614195             0     0.3673368             0             0             0             0     0.2017471       0.78437    -0.5176028             0             0             0             0             0             0     0.1707284     0.7817461   -0.02745903             0             0             0
1.849981      52.89467      134.7707     -5.658452     0.1996558 -1.387779e-17    -0.4352038             0     0.6199531             0      61.74217      616.4284     -5.582343      0.132709 -8.673617e-18     -0.158597             0     0.4454305             0             0             0             0     0.2048924     0.7864394    -0.5141761             0             0             0             0             0             0     0.1699487      0.782192   -0.02398557             0             0             0
1.866647       44.4975      116.4953     -10.44341     0.2000551 -1.387779e-17    -0.4353628             0     0.5277659             0      50.56483      631.3904     -11.49148     0.1348775 -8.673617e-18    -0.1551337             0     0.4693963             0             0             0             0     0.2079949      0.788711    -0.5109844             0             0             0             0             0             0     0.1696177      0.782657   -0.02059966             0             0             0
1.883314      32.79771      113.1443     -13.02764     0.2004792 -1.387779e-17    -0.4356975             0     0.3803825             0      37.71003      644.2818     -16.36292     0.1353526 -6.938894e-18    -0.1535013             0     0.4570394             0             0             0             0     0.2108828     0.7906577    -0.5080859             0             0             0             0             0             0     0.1697164     0.7825747   -0.01735546             0             0             0
1.899981      20.71158      114.5942     -14.53127     0.2008828 -1.387779e-17    -0.4362062             0     0.2277053             0       26.1953      656.5868     -19.55731     0.1349782 -6.938894e-18    -0.1538782             0     0.4238557             0             0             0             0     0.2134631     0.7916512    -0.5054776             0             0             0             0             0             0     0.1702559     0.7813653   -0.01421374             0             0             0
1.916647      10.45023      113.7531      -16.4153     0.2011802 -1.214306e-17    -0.4367221             0     0.1012875             0      17.70515      669.6956     -20.67183     0.1324154 -8.673617e-18    -0.1548919             0     0.3758003             0             0             0             0     0.2156949     0.7913783    -0.5031205             0             0             0             0             0             0     0.1712198       0.77885   -0.01107843             0             0             0
1.933314      3.240403      109.0056     -19.54321     0.2011972 -1.214306e-17    -0.4374276             0    0.01610438             0      12.66761      683.5564     -19.59716     0.1297199 -8.673617e-18    -0.1587049             0     0.3193446             0             0             0             0     0.2175273     0.7900678    -0.5009903             0             0             0             0             0             0     0.1725118     0.7754121   -0.00787268             0             0             0
 1.94998    -0.4979946      101.6542     -23.63761     0.2007181 -1.214306e-17    -0.4390501             0   -0.02060455             0      10.92487      697.5364     -16.92454     0.1259951 -6.938894e-18    -0.1628179             0     0.2753849             0             0             0             0     0.2188605     0.7884088    -0.4991222             0             0             0             0             0             0     0.1739719      0.771849   -0.00461634             0             0             0
1.966647     -1.074355      92.23213     -27.23445     0.1996784 -1.214306e-17    -0.4385277             0   -0.00922896             0      12.22076      711.6909     -14.25458     0.1227338 -6.938894e-18    -0.1653401             0     0.2781753             0             0             0             0     0.2195654     0.7872488    -0.4976074             0             0             0             0             0             0     0.1754586     0.7690525   -0.00143945             0             0             0
1.983313     0.4290516      79.33088     -28.27192      0.198072 -1.214306e-17    -0.4353947             0    0.03505495             0      16.22789      726.9047     -13.81706       0.12152 -6.938894e-18    -0.1659572             0     0.3530772             0             0             0             0     0.2195666     0.7872197    -0.4965312             0             0             0             0             0             0     0.1769539     0.7676505    0.00149165             0             0             0
 1.99998      2.405681       61.5295     -25.26008     0.1970279 -1.214306e-17    -0.4329324             0    0.08235432             0      22.38937      743.6759     -17.29033     0.1223953 -6.938894e-18    -0.1646514             0     0.4864868             0             0             0             0     0.2189415     0.7884265    -0.4958954             0             0             0             0             0             0     0.1786358     0.7677128    0.00408748             0             0             0
